<svg width="42" height="42" viewBox="0 0 42 42" fill="none" xmlns="http://www.w3.org/2000/svg">
<circle cx="21" cy="21" r="21" fill="#D9D9D9"/>
<mask id="path-2-inside-1_217_24790" fill="white">
<path d="M9.87244 38.8095C5.88169 36.316 2.84405 32.5544 1.24678 28.1281L10.7235 24.7084C11.5544 27.0112 13.1347 28.9681 15.2109 30.2653L9.87244 38.8095Z"/>
</mask>
<path d="M9.87244 38.8095C5.88169 36.316 2.84405 32.5544 1.24678 28.1281L10.7235 24.7084C11.5544 27.0112 13.1347 28.9681 15.2109 30.2653L9.87244 38.8095Z" fill="#894CA6" stroke="#4D772D" stroke-width="20" mask="url(#path-2-inside-1_217_24790)"/>
<mask id="path-3-inside-2_217_24790" fill="white">
<path d="M23.8898 41.8002C19.2289 42.4478 14.4855 41.5111 10.4206 39.1405L15.4961 30.4375C17.6109 31.6708 20.0786 32.1581 22.5034 31.8212L23.8898 41.8002Z"/>
</mask>
<path d="M23.8898 41.8002C19.2289 42.4478 14.4855 41.5111 10.4206 39.1405L15.4961 30.4375C17.6109 31.6708 20.0786 32.1581 22.5034 31.8212L23.8898 41.8002Z" fill="#894CA6" stroke="#894CA6" stroke-width="20" mask="url(#path-3-inside-2_217_24790)"/>
<mask id="path-4-inside-3_217_24790" fill="white">
<path d="M36.6214 35.0347C33.4765 38.5351 29.2471 40.8779 24.6115 41.6871L22.8789 31.7624C25.2905 31.3414 27.4909 30.1226 29.127 28.3015L36.6214 35.0347Z"/>
</mask>
<path d="M36.6214 35.0347C33.4765 38.5351 29.2471 40.8779 24.6115 41.6871L22.8789 31.7624C25.2905 31.3414 27.4909 30.1226 29.127 28.3015L36.6214 35.0347Z" fill="#254E6C" stroke="#254E6C" stroke-width="20" mask="url(#path-4-inside-3_217_24790)"/>
<mask id="path-5-inside-4_217_24790" fill="white">
<path d="M41.9879 21.7129C41.8281 26.4159 40.0934 30.9289 37.0621 34.5281L29.3562 28.038C30.9333 26.1655 31.8358 23.8176 31.9189 21.3709L41.9879 21.7129Z"/>
</mask>
<path d="M41.9879 21.7129C41.8281 26.4159 40.0934 30.9289 37.0621 34.5281L29.3562 28.038C30.9333 26.1655 31.8358 23.8176 31.9189 21.3709L41.9879 21.7129Z" fill="#357497" stroke="#357497" stroke-width="20" mask="url(#path-5-inside-4_217_24790)"/>
<mask id="path-6-inside-5_217_24790" fill="white">
<path d="M37.4948 8.00303C40.4072 11.6992 41.9937 16.2664 42 20.9721L31.9252 20.9855C31.9219 18.5374 31.0965 16.1613 29.5814 14.2384L37.4948 8.00303Z"/>
</mask>
<path d="M37.4948 8.00303C40.4072 11.6992 41.9937 16.2664 42 20.9721L31.9252 20.9855C31.9219 18.5374 31.0965 16.1613 29.5814 14.2384L37.4948 8.00303Z" fill="#FF8C21" stroke="#FF8C21" stroke-width="20" mask="url(#path-6-inside-5_217_24790)"/>
<mask id="path-7-inside-6_217_24790" fill="white">
<path d="M25.2975 0.44442C29.9036 1.4074 34.0528 3.88951 37.0795 7.49261L29.3653 13.9728C27.7907 12.0983 25.632 10.807 23.2357 10.306L25.2975 0.44442Z"/>
</mask>
<path d="M25.2975 0.44442C29.9036 1.4074 34.0528 3.88951 37.0795 7.49261L29.3653 13.9728C27.7907 12.0983 25.632 10.807 23.2357 10.306L25.2975 0.44442Z" fill="#217AFF" stroke="#217AFF" stroke-width="20" mask="url(#path-7-inside-6_217_24790)"/>
<mask id="path-8-inside-7_217_24790" fill="white">
<path d="M1.42887 13.3861C3.13499 9.00063 6.26461 5.31523 10.3157 2.9211L15.4415 11.5945C13.334 12.8401 11.7058 14.7574 10.8182 17.0389L1.42887 13.3861Z"/>
</mask>
<path d="M1.42887 13.3861C3.13499 9.00063 6.26461 5.31523 10.3157 2.9211L15.4415 11.5945C13.334 12.8401 11.7058 14.7574 10.8182 17.0389L1.42887 13.3861Z" fill="#1E8868" stroke="#1E8868" stroke-width="20" mask="url(#path-8-inside-7_217_24790)"/>
<mask id="path-9-inside-8_217_24790" fill="white">
<path d="M1.02415 27.4781C-0.427459 23.0019 -0.333598 18.1678 1.29068 13.7514L10.7463 17.2289C9.90127 19.5266 9.85244 22.0415 10.6076 24.3702L1.02415 27.4781Z"/>
</mask>
<path d="M1.02415 27.4781C-0.427459 23.0019 -0.333598 18.1678 1.29068 13.7514L10.7463 17.2289C9.90127 19.5266 9.85244 22.0415 10.6076 24.3702L1.02415 27.4781Z" fill="#357497" stroke="#482AFF" stroke-width="20" mask="url(#path-9-inside-8_217_24790)"/>
<mask id="path-10-inside-9_217_24790" fill="white">
<path d="M10.9334 2.57006C15.0632 0.314319 19.8309 -0.488991 24.4718 0.28898L22.8062 10.2252C20.3918 9.82043 17.9114 10.2383 15.7629 11.4119L10.9334 2.57006Z"/>
</mask>
<path d="M10.9334 2.57006C15.0632 0.314319 19.8309 -0.488991 24.4718 0.28898L22.8062 10.2252C20.3918 9.82043 17.9114 10.2383 15.7629 11.4119L10.9334 2.57006Z" fill="#D73636" stroke="#D73636" stroke-width="20" mask="url(#path-10-inside-9_217_24790)"/>
</svg>
